# xmcd
#
# Track frame offsets: 
#        150
#        11892
#        20569
#        32613
#        42524
#        49361
#        62403
#        77291
#        89685
#        104662
#        119498
#
# Disc length: 1746 seconds
#
# Revision: 0
# Processed by: cddbd v1.5.2PL0 Copyright (c) Steve Scherf et al.
# Submitted via: ExactAudioCopy v1.0b3
#
DISCID=9106d00b
DTITLE=Willie 'Sonny Boy' King - Alabama Bluesman
DYEAR=2005
DGENRE=Blues
TTITLE0=I Love You Baby
TTITLE1=Come Home This Morning
TTITLE2=Baney Maroney
TTITLE3=She's So Fine
TTITLE4=40 Days
TTITLE5=44 Blues
TTITLE6=Oh Baby
TTITLE7=You Want To Boogie
TTITLE8=Hurts Me Too
TTITLE9=Take Out Some Insurance
TTITLE10=Mean Old Frisco
EXTD=
EXTT0=
EXTT1=
EXTT2=
EXTT3=
EXTT4=
EXTT5=
EXTT6=
EXTT7=
EXTT8=
EXTT9=
EXTT10=
PLAYORDER=
